<?xml version="1.0" encoding="UTF-8"?>
<!-- Created with Inkscape (http://www.inkscape.org/) -->
<svg width="2000px" height="2000px" version="1.1" viewBox="0 0 529.17 529.17" xmlns="http://www.w3.org/2000/svg">
 <g>
  <path id="disc_outer" transform="scale(.26458)" d="m1e3 500a500 500 0 0 0-500 500 500 500 0 0 0 500 500 500 500 0 0 0 500-500 500 500 0 0 0-500-500zm0 395a105 105 0 0 1 105 105 105 105 0 0 1-105 105 105 105 0 0 1-105-105 105 105 0 0 1 105-105z" fill-rule="evenodd" stroke-width=".94422"/>
  <circle cx="264.58" cy="264.58" r="16.536" stroke-width=".27076"/>
 </g>
</svg>
